<svg width="116" height="100" viewBox="0 0 116 100" fill="none" xmlns="http://www.w3.org/2000/svg">
<path d="M93.2918 83.1563C94.5883 82.4141 96.2287 82.8525 96.979 84.1411L102.277 91.4014L102.394 91.4327C103.391 93.1799 102.789 95.421 101.048 96.4376C99.3082 97.4542 97.089 96.8611 96.0922 95.1139L92.2078 87.1889C91.8207 86.5132 91.717 85.7076 91.9205 84.9511C92.124 84.1947 92.6176 83.5486 93.2918 83.1563ZM85.7512 36.7695C91.7747 38.3775 96.9016 42.3362 100.004 47.7741C103.107 53.212 103.931 59.684 102.295 65.7664C98.8878 78.4322 85.9582 85.9858 73.415 82.6377C60.8716 79.2893 53.4649 66.3068 56.8715 53.6408C60.2783 40.975 73.208 33.4215 85.7512 36.7695Z" fill="url(#paint0_linear_20409_19754)"/>
<g filter="url(#filter0_f_20409_19754)">
<path d="M82.9425 47.2119C76.107 45.3862 69.0621 49.4995 67.2074 56.3991C65.3526 63.2988 69.3903 70.372 76.2259 72.1977C83.0614 74.0233 90.1063 69.9101 91.961 63.0104C92.8517 59.6971 92.4019 56.1712 90.7106 53.2084C89.0193 50.2456 86.2251 48.0886 82.9425 47.2119Z" fill="#3779FE"/>
</g>
<foreignObject x="-6.22303" y="-17.5781" width="121.094" height="141.803"><div xmlns="http://www.w3.org/1999/xhtml" style="backdrop-filter:blur(12.21px);clip-path:url(#bgblur_0_20409_19754_clip_path);height:100%;width:100%"></div></foreignObject><g data-figma-bg-blur-radius="24.4199">
<mask id="path-3-outside-1_20409_19754" maskUnits="userSpaceOnUse" x="-1.70889" y="-2.45337" width="104.188" height="104.019" fill="black">
<rect fill="white" x="-1.70889" y="-2.45337" width="104.188" height="104.019"/>
<path fill-rule="evenodd" clip-rule="evenodd" d="M88.197 34.2085C83.1155 15.3156 63.8287 4.04872 45.1187 9.04314C36.1338 11.4416 28.4863 17.3458 23.8586 25.4571C19.2308 33.5684 18.0019 43.2223 20.4421 52.295C25.5236 71.1878 44.8104 82.4548 63.5204 77.4603C82.2304 72.4659 93.2785 53.1014 88.197 34.2085ZM28.3727 79.7041L20.4714 90.5341L20.2962 90.5808C18.8093 93.187 19.7082 96.5289 22.3039 98.0452C24.8995 99.5616 28.2091 98.6781 29.696 96.072L35.4906 84.2499C36.0679 83.242 36.2218 82.0412 35.9183 80.9128C35.6148 79.7844 34.8788 78.8211 33.873 78.2359C31.939 77.1286 29.4919 77.7818 28.3727 79.7041Z"/>
</mask>
<path fill-rule="evenodd" clip-rule="evenodd" d="M88.197 34.2085C83.1155 15.3156 63.8287 4.04872 45.1187 9.04314C36.1338 11.4416 28.4863 17.3458 23.8586 25.4571C19.2308 33.5684 18.0019 43.2223 20.4421 52.295C25.5236 71.1878 44.8104 82.4548 63.5204 77.4603C82.2304 72.4659 93.2785 53.1014 88.197 34.2085ZM28.3727 79.7041L20.4714 90.5341L20.2962 90.5808C18.8093 93.187 19.7082 96.5289 22.3039 98.0452C24.8995 99.5616 28.2091 98.6781 29.696 96.072L35.4906 84.2499C36.0679 83.242 36.2218 82.0412 35.9183 80.9128C35.6148 79.7844 34.8788 78.8211 33.873 78.2359C31.939 77.1286 29.4919 77.7818 28.3727 79.7041Z" fill="#3779FE" fill-opacity="0.35"/>
<path d="M45.1187 9.04314L44.8547 8.06049V8.06049L45.1187 9.04314ZM88.197 34.2085L87.214 34.4712V34.4712L88.197 34.2085ZM23.8586 25.4571L24.7431 25.9618V25.9618L23.8586 25.4571ZM20.4421 52.295L21.4251 52.0323V52.0323L20.4421 52.295ZM63.5204 77.4603L63.2564 76.4777V76.4777L63.5204 77.4603ZM20.4714 90.5341L21.2942 91.134C21.1573 91.3216 20.9601 91.4567 20.7354 91.5167L20.4714 90.5341ZM28.3727 79.7041L29.2527 80.2165C29.2352 80.2466 29.2161 80.2758 29.1955 80.304L28.3727 79.7041ZM20.2962 90.5808L19.4117 90.0762C19.5463 89.8404 19.7697 89.6682 20.0322 89.5982L20.2962 90.5808ZM29.696 96.072L30.6103 96.5204C30.601 96.5394 30.591 96.5582 30.5805 96.5766L29.696 96.072ZM35.4906 84.2499L34.5763 83.8015C34.5859 83.7819 34.5961 83.7626 34.607 83.7437L35.4906 84.2499ZM35.9183 80.9128L34.9353 81.1755V81.1755L35.9183 80.9128ZM33.873 78.2359L34.3782 77.3535L34.3843 77.3571L33.873 78.2359ZM45.1187 9.04314L44.8547 8.06049C64.1169 2.91864 83.9551 14.5199 89.18 33.9458L88.197 34.2085L87.214 34.4712C82.2758 16.1114 63.5404 5.17879 45.3827 10.0258L45.1187 9.04314ZM23.8586 25.4571L22.9741 24.9525C27.7356 16.6067 35.6058 10.5294 44.8547 8.06049L45.1187 9.04314L45.3827 10.0258C36.6618 12.3537 29.237 18.085 24.7431 25.9618L23.8586 25.4571ZM20.4421 52.295L19.4591 52.5576C16.9497 43.2276 18.2128 33.2978 22.9741 24.9525L23.8586 25.4571L24.7431 25.9618C20.2488 33.839 19.0541 43.217 21.4251 52.0323L20.4421 52.295ZM63.5204 77.4603L63.7844 78.443C44.5221 83.5848 24.684 71.9836 19.4591 52.5576L20.4421 52.295L21.4251 52.0323C26.3632 70.3921 45.0987 81.3247 63.2564 76.4777L63.5204 77.4603ZM88.197 34.2085L89.18 33.9458C94.4049 53.372 83.0469 73.3011 63.7844 78.443L63.5204 77.4603L63.2564 76.4777C81.4139 71.6308 92.152 52.8308 87.214 34.4712L88.197 34.2085ZM20.4714 90.5341L19.6485 89.9342L27.5499 79.1042L28.3727 79.7041L29.1955 80.304L21.2942 91.134L20.4714 90.5341ZM20.2962 90.5808L20.0322 89.5982L20.2074 89.5514L20.4714 90.5341L20.7354 91.5167L20.5602 91.5635L20.2962 90.5808ZM22.3039 98.0452L21.791 98.9231C18.7134 97.1252 17.6485 93.1667 19.4117 90.0762L20.2962 90.5808L21.1807 91.0855C19.9702 93.2072 20.7029 95.9325 22.8167 97.1674L22.3039 98.0452ZM29.696 96.072L30.5805 96.5766C28.8132 99.6742 24.8756 100.725 21.791 98.9231L22.3039 98.0452L22.8167 97.1674C24.9235 98.3981 27.605 97.682 28.8115 95.5673L29.696 96.072ZM35.4906 84.2499L36.4049 84.6982L30.6103 96.5204L29.696 96.072L28.7817 95.6236L34.5763 83.8015L35.4906 84.2499ZM35.9183 80.9128L36.9013 80.6501C37.2742 82.0365 37.0858 83.5138 36.3742 84.756L35.4906 84.2499L34.607 83.7437C35.0501 82.9702 35.1694 82.046 34.9353 81.1755L35.9183 80.9128ZM33.873 78.2359L34.3843 77.3571C35.6238 78.0783 36.5284 79.2637 36.9013 80.6501L35.9183 80.9128L34.9353 81.1755C34.7012 80.305 34.1339 79.5639 33.3617 79.1146L33.873 78.2359ZM28.3727 79.7041L27.4927 79.1918C28.893 76.7865 31.9588 75.9684 34.3782 77.3536L33.873 78.2359L33.3679 79.1182C31.9192 78.2888 30.0907 78.7772 29.2527 80.2165L28.3727 79.7041Z" fill="url(#paint1_linear_20409_19754)" mask="url(#path-3-outside-1_20409_19754)"/>
</g>
<g filter="url(#filter3_d_20409_19754)">
<foreignObject x="34.427" y="22.4262" width="39.146" height="41.1476"><div xmlns="http://www.w3.org/1999/xhtml" style="backdrop-filter:blur(2.75px);clip-path:url(#bgblur_1_20409_19754_clip_path);height:100%;width:100%"></div></foreignObject><g data-figma-bg-blur-radius="5.49958">
<mask id="path-5-outside-2_20409_19754" maskUnits="userSpaceOnUse" x="39" y="27" width="30" height="32" fill="black">
<rect fill="white" x="39" y="27" width="30" height="32"/>
<path d="M54 46C46.4082 46 40 47.2374 40 52.0225C40 56.8037 46.4492 58 54 58C61.5918 58 68 56.7626 68 51.9775C68 47.1963 61.5508 46 54 46ZM54 28C49.559 28 46 31.559 46 36C46 40.441 49.559 44 54 44C58.4394 44 62 40.441 62 36C62 31.559 58.4394 28 54 28Z"/>
</mask>
<path d="M54 46C46.4082 46 40 47.2374 40 52.0225C40 56.8037 46.4492 58 54 58C61.5918 58 68 56.7626 68 51.9775C68 47.1963 61.5508 46 54 46ZM54 28C49.559 28 46 31.559 46 36C46 40.441 49.559 44 54 44C58.4394 44 62 40.441 62 36C62 31.559 58.4394 28 54 28Z" fill="url(#paint2_linear_20409_19754)"/>
<path d="M54 46V45.9266V46ZM40 52.0225H39.9266V52.0225H40ZM54 58V58.0734V58ZM68 51.9775H68.0734V51.9775H68ZM54 28V27.9266V28ZM46 36H45.9266V36H46ZM54 44V44.0734V44ZM62 36H62.0734V36H62ZM54 46V46.0734C50.2059 46.0734 46.7164 46.3829 44.1777 47.286C42.9089 47.7374 41.8827 48.3353 41.1742 49.1123C40.4672 49.8876 40.0734 50.8444 40.0734 52.0225H40H39.9266C39.9266 50.808 40.3338 49.8158 41.0656 49.0133C41.7959 48.2124 42.8463 47.6038 44.1285 47.1477C46.6918 46.2358 50.2023 45.9266 54 45.9266V46ZM40 52.0225H40.0734C40.0734 53.1994 40.4696 54.1529 41.1797 54.9238C41.8913 55.6964 42.9213 56.2889 44.1928 56.7349C46.7367 57.6273 50.2263 57.9266 54 57.9266V58V58.0734C50.2229 58.0734 46.7126 57.7745 44.1441 56.8735C42.8594 56.4228 41.8052 55.8197 41.0716 55.0233C40.3365 54.2252 39.9266 53.2362 39.9266 52.0225H40ZM54 58V57.9266C57.7941 57.9266 61.2836 57.6171 63.8223 56.714C65.0911 56.2626 66.1173 55.6647 66.8258 54.8877C67.5328 54.1124 67.9266 53.1556 67.9266 51.9775H68H68.0734C68.0734 53.192 67.6662 54.1842 66.9344 54.9867C66.2041 55.7876 65.1537 56.3962 63.8715 56.8523C61.3082 57.7642 57.7977 58.0734 54 58.0734V58ZM68 51.9775H67.9266C67.9266 50.8006 67.5304 49.8471 66.8203 49.0762C66.1087 48.3036 65.0787 47.7111 63.8072 47.2651C61.2633 46.3727 57.7737 46.0734 54 46.0734V46V45.9266C57.7771 45.9266 61.2874 46.2255 63.8559 47.1265C65.1406 47.5772 66.1948 48.1803 66.9284 48.9767C67.6635 49.7748 68.0734 50.7638 68.0734 51.9775H68ZM54 28V28.0734C49.5995 28.0734 46.0734 31.5995 46.0734 36H46H45.9266C45.9266 31.5184 49.5184 27.9266 54 27.9266V28ZM46 36H46.0734C46.0734 40.4005 49.5995 43.9266 54 43.9266V44V44.0734C49.5184 44.0734 45.9266 40.4816 45.9266 36H46ZM54 44V43.9266C58.3989 43.9266 61.9266 40.4005 61.9266 36H62H62.0734C62.0734 40.4816 58.48 44.0734 54 44.0734V44ZM62 36H61.9266C61.9266 31.5995 58.3989 28.0734 54 28.0734V28V27.9266C58.48 27.9266 62.0734 31.5184 62.0734 36H62Z" fill="white" fill-opacity="0.5" mask="url(#path-5-outside-2_20409_19754)"/>
</g>
</g>
<defs>
<filter id="filter0_f_20409_19754" x="51.4941" y="31.5168" width="56.177" height="56.3765" filterUnits="userSpaceOnUse" color-interpolation-filters="sRGB">
<feFlood flood-opacity="0" result="BackgroundImageFix"/>
<feBlend mode="normal" in="SourceGraphic" in2="BackgroundImageFix" result="shape"/>
<feGaussianBlur stdDeviation="7.63123" result="effect1_foregroundBlur_20409_19754"/>
</filter>
<clipPath id="bgblur_0_20409_19754_clip_path" transform="translate(6.22303 17.5781)"><path fill-rule="evenodd" clip-rule="evenodd" d="M88.197 34.2085C83.1155 15.3156 63.8287 4.04872 45.1187 9.04314C36.1338 11.4416 28.4863 17.3458 23.8586 25.4571C19.2308 33.5684 18.0019 43.2223 20.4421 52.295C25.5236 71.1878 44.8104 82.4548 63.5204 77.4603C82.2304 72.4659 93.2785 53.1014 88.197 34.2085ZM28.3727 79.7041L20.4714 90.5341L20.2962 90.5808C18.8093 93.187 19.7082 96.5289 22.3039 98.0452C24.8995 99.5616 28.2091 98.6781 29.696 96.072L35.4906 84.2499C36.0679 83.242 36.2218 82.0412 35.9183 80.9128C35.6148 79.7844 34.8788 78.8211 33.873 78.2359C31.939 77.1286 29.4919 77.7818 28.3727 79.7041Z"/>
</clipPath><filter id="filter3_d_20409_19754" x="34.4184" y="22.4176" width="39.1632" height="41.1648" filterUnits="userSpaceOnUse" color-interpolation-filters="sRGB">
<feFlood flood-opacity="0" result="BackgroundImageFix"/>
<feColorMatrix in="SourceAlpha" type="matrix" values="0 0 0 0 0 0 0 0 0 0 0 0 0 0 0 0 0 0 127 0" result="hardAlpha"/>
<feOffset dx="1.83607" dy="1.83607"/>
<feGaussianBlur stdDeviation="1.83607"/>
<feComposite in2="hardAlpha" operator="out"/>
<feColorMatrix type="matrix" values="0 0 0 0 0.215686 0 0 0 0 0.47451 0 0 0 0 0.996078 0 0 0 0.5 0"/>
<feBlend mode="normal" in2="BackgroundImageFix" result="effect1_dropShadow_20409_19754"/>
<feBlend mode="normal" in="SourceGraphic" in2="effect1_dropShadow_20409_19754" result="shape"/>
</filter>
<clipPath id="bgblur_1_20409_19754_clip_path" transform="translate(-34.427 -22.4262)"><path d="M54 46C46.4082 46 40 47.2374 40 52.0225C40 56.8037 46.4492 58 54 58C61.5918 58 68 56.7626 68 51.9775C68 47.1963 61.5508 46 54 46ZM54 28C49.559 28 46 31.559 46 36C46 40.441 49.559 44 54 44C58.4394 44 62 40.441 62 36C62 31.559 58.4394 28 54 28Z"/>
</clipPath><linearGradient id="paint0_linear_20409_19754" x1="116.232" y1="44.9103" x2="45.4252" y2="76.5912" gradientUnits="userSpaceOnUse">
<stop stop-color="#00CCFF"/>
<stop offset="1" stop-color="#3779FE"/>
</linearGradient>
<linearGradient id="paint1_linear_20409_19754" x1="68.8917" y1="12.5456" x2="19.9979" y2="95.0255" gradientUnits="userSpaceOnUse">
<stop stop-color="white" stop-opacity="0.25"/>
<stop offset="1" stop-color="white" stop-opacity="0"/>
</linearGradient>
<linearGradient id="paint2_linear_20409_19754" x1="54.3333" y1="27.3" x2="78.4932" y2="48.1053" gradientUnits="userSpaceOnUse">
<stop stop-color="white"/>
<stop offset="1" stop-color="white" stop-opacity="0"/>
</linearGradient>
</defs>
</svg>
