<svg width="32" height="32" viewBox="0 0 32 32" fill="none" xmlns="http://www.w3.org/2000/svg">
<path d="M7.63013 19.7233C9.53271 19.7233 5.93357 13.4459 7.42845 10.0629C8.13402 8.46613 10.4536 6.44025 10.4536 6.44025C10.4536 6.44025 9.96967 9.07387 11.2603 9.25786C12.672 9.45912 13.6399 7.35728 14.2854 5.43396C14.9857 3.3472 14.2854 0 14.2854 0C14.2854 0 17.7786 1.77347 19.5289 4.83019C21.949 9.0566 20.098 12.6284 22.554 11.4717C23.2106 11.1624 22.7557 10.2642 22.7557 10.2642C22.7557 10.2642 26.5858 13.8024 27.7975 16.7044C28.8059 19.1195 29.4604 21.593 28.6042 24.5535C27.0647 29.8765 21.3439 32 16.5038 32C11.6636 32 7.42845 30.4187 5.61339 27.5723C4.69401 26.1306 4 24.2259 4 21.9371C4 19.7233 5.41172 16.1006 5.41172 16.1006C5.41172 16.1006 6.21841 19.7233 7.63013 19.7233Z" fill="#FFD322"/>
</svg>
