<svg width="32" height="32" viewBox="0 0 32 32" fill="none" xmlns="http://www.w3.org/2000/svg">
<path d="M6.1875 25.2617C7.06108 25.2619 7.81282 25.7233 8.16309 26.3887C9.32209 26.438 10.2451 27.2961 10.2451 28.3496C10.2451 28.7027 10.1395 29.033 9.95801 29.3193C10.4966 29.5408 10.871 30.0279 10.8711 30.5947C10.8711 31.3699 10.1716 31.998 9.30859 31.998C8.53343 31.998 7.89142 31.4911 7.76855 30.8262C7.37021 31.2017 6.8095 31.4375 6.18652 31.4375C4.97882 31.4373 4 30.5577 4 29.4727C4.00001 29.055 4.14524 28.668 4.39258 28.3496C4.1453 28.0313 4 27.6442 4 27.2266C4.00004 26.1414 4.97964 25.2617 6.1875 25.2617ZM22.9658 16.8447C23.5923 15.9455 24.8607 15.5288 25.9795 15.9102C27.098 16.2917 27.681 17.3392 27.4102 18.3594C27.4203 18.3627 27.4313 18.3657 27.4414 18.3691C28.6869 18.7941 29.2724 20.046 28.749 21.165C28.6301 21.4192 28.4617 21.6433 28.2617 21.835C28.9197 22.251 29.1853 23.0324 28.8525 23.7441C28.4859 24.5274 27.5248 24.948 26.6387 24.7412C26.1469 25.7111 25.0636 26.2814 24.0371 26.1592C24.0496 26.4164 24.0011 26.6822 23.8809 26.9395C23.4446 27.8717 22.2496 28.341 21.2119 27.9873C21.0822 27.9431 20.9604 27.8874 20.8486 27.8232C20.8434 27.8351 20.8405 27.8486 20.835 27.8604C20.6531 28.2488 20.35 28.5635 19.9834 28.7842C20.1057 29.0711 20.1103 29.4017 19.9639 29.7148C19.6585 30.3673 18.8221 30.6947 18.0957 30.4473C17.369 30.1994 17.0267 29.4692 17.332 28.8164C17.343 28.7931 17.3559 28.7705 17.3682 28.748C16.6039 28.2314 16.3026 27.2993 16.7002 26.4492C16.8122 26.21 16.9702 25.999 17.1602 25.8203C16.0487 25.4165 15.5313 24.2879 16.0049 23.2754C16.3692 22.4968 17.2141 22.0122 18.0996 21.9941C18.089 21.7636 18.1324 21.5254 18.2402 21.2949C18.5522 20.6283 19.2951 20.2261 20.0557 20.248C19.5312 19.6665 19.3759 18.8484 19.7305 18.0898C20.254 16.9707 21.6878 16.4071 22.9336 16.832C22.9445 16.8358 22.955 16.8409 22.9658 16.8447ZM13.3711 0C15.2277 6.71998e-05 16.7688 1.21383 17.0664 2.80664C17.082 2.80647 17.0977 2.80664 17.1133 2.80664C19.1828 2.80672 20.8612 4.31464 20.8613 6.1748C20.8613 6.59882 20.7724 7.00419 20.6133 7.37793C21.8321 7.65449 22.7344 8.64403 22.7344 9.8252C22.7343 11.1341 21.6269 12.2107 20.208 12.3389C19.8708 14.0246 18.7903 15.3264 17.4404 15.6426C17.6325 16.0067 17.7441 16.412 17.7441 16.8418C17.7441 18.392 16.3454 19.6493 14.6211 19.6494C14.4074 19.6494 14.1987 19.6286 13.9971 19.5918C13.9974 19.6106 13.999 19.6296 13.999 19.6484C13.999 20.2942 13.7775 20.893 13.4004 21.3887C13.7702 21.7406 13.998 22.2141 13.998 22.7363C13.998 23.8213 13.0191 24.7009 11.8115 24.7012C10.6036 24.7012 9.62402 23.8215 9.62402 22.7363C9.62402 22.6969 9.62734 22.658 9.62988 22.6191C8.1869 22.2533 7.12899 21.0625 7.12891 19.6484C7.12891 19.2523 7.21205 18.8734 7.36328 18.5254C5.49935 18.491 4.0001 17.1231 4 15.4395C4 14.1468 4.88365 13.0392 6.1377 12.5791C5.96793 12.2538 5.8711 11.8918 5.87109 11.5088C5.87109 10.3945 6.67399 9.45002 7.78809 9.11426C6.64423 8.53756 5.87109 7.43753 5.87109 6.1748C5.87125 4.31465 7.54868 2.80674 9.61816 2.80664C9.63729 2.80664 9.65672 2.80736 9.67578 2.80762C9.97285 1.21435 11.5142 0.000172288 13.3711 0Z" fill="#C9D0D9"/>
</svg>
