<svg width="32" height="32" viewBox="0 0 32 32" fill="none" xmlns="http://www.w3.org/2000/svg">
<path d="M14.8875 1.07621C15.5078 0.476152 16.4922 0.476152 17.1125 1.07621L19.3933 3.28267C19.748 3.62581 20.2412 3.78606 20.7298 3.71694L23.872 3.2725C24.7265 3.15164 25.5229 3.73025 25.672 4.58029L26.2203 7.70598C26.3056 8.19208 26.6104 8.61162 27.0463 8.84292L29.8496 10.3303C30.612 10.7348 30.9162 11.671 30.5371 12.4463L29.1435 15.2973C28.9267 15.7407 28.9267 16.2593 29.1435 16.7027L30.5371 19.5537C30.9162 20.329 30.612 21.2652 29.8496 21.6697L27.0463 23.1571C26.6104 23.3884 26.3056 23.8079 26.2203 24.294L25.672 27.4197C25.5229 28.2698 24.7265 28.8484 23.872 28.7275L20.7298 28.2831C20.2412 28.2139 19.748 28.3742 19.3933 28.7173L17.1125 30.9238C16.4922 31.5238 15.5078 31.5238 14.8875 30.9238L12.6067 28.7173C12.252 28.3742 11.7588 28.2139 11.2702 28.2831L8.12802 28.7275C7.27351 28.8484 6.47712 28.2697 6.32801 27.4197L5.77972 24.294C5.69445 23.8079 5.38963 23.3884 4.95368 23.1571L2.1504 21.6697C1.38804 21.2652 1.08385 20.329 1.46286 19.5537L2.85652 16.7027C3.07325 16.2593 3.07325 15.7407 2.85652 15.2973L1.46286 12.4463C1.08385 11.671 1.38804 10.7348 2.1504 10.3303L4.95368 8.84292C5.38963 8.61162 5.69445 8.19208 5.77972 7.70598L6.32801 4.58029C6.47712 3.73025 7.27351 3.15164 8.12802 3.2725L11.2702 3.71694C11.7588 3.78606 12.252 3.6258 12.6067 3.28267L14.8875 1.07621Z" fill="#FF3F4C"/>
<circle cx="16" cy="15.9998" r="11.2" fill="#FFD322"/>
</svg>
