<svg width="88" height="156" viewBox="0 0 88 156" fill="none" xmlns="http://www.w3.org/2000/svg">
<rect x="20" y="20" width="48" height="48" rx="8" fill="#EDEFF1"/>
<path d="M35.6301 47.7233C37.5327 47.7233 33.9336 41.4459 35.4285 38.0629C36.134 36.4661 38.4536 34.4403 38.4536 34.4403C38.4536 34.4403 37.9697 37.0739 39.2603 37.2579C40.672 37.4591 41.6399 35.3573 42.2854 33.434C42.9857 31.3472 42.2854 28 42.2854 28C42.2854 28 45.7786 29.7735 47.5289 32.8302C49.949 37.0566 48.098 40.6284 50.554 39.4717C51.2106 39.1624 50.7557 38.2642 50.7557 38.2642C50.7557 38.2642 54.5858 41.8024 55.7975 44.7044C56.8059 47.1195 57.4604 49.593 56.6042 52.5535C55.0647 57.8765 49.3439 60 44.5038 60C39.6636 60 35.4285 58.4187 33.6134 55.5723C32.694 54.1306 32 52.2259 32 49.9371C32 47.7233 33.4117 44.1006 33.4117 44.1006C33.4117 44.1006 34.2184 47.7233 35.6301 47.7233Z" fill="#FF3F4C"/>
<mask id="mask0_19733_42923" style="mask-type:alpha" maskUnits="userSpaceOnUse" x="32" y="28" width="25" height="32">
<path d="M35.6301 47.7233C37.5327 47.7233 33.9336 41.4459 35.4285 38.0629C36.134 36.4661 38.4536 34.4403 38.4536 34.4403C38.4536 34.4403 37.9697 37.0739 39.2603 37.2579C40.672 37.4591 41.6399 35.3573 42.2854 33.434C42.9857 31.3472 42.2854 28 42.2854 28C42.2854 28 45.7786 29.7735 47.5289 32.8302C49.949 37.0566 48.098 40.6284 50.554 39.4717C51.2106 39.1624 50.7557 38.2642 50.7557 38.2642C50.7557 38.2642 54.5858 41.8024 55.7975 44.7044C56.8059 47.1195 57.4604 49.593 56.6042 52.5535C55.0647 57.8765 49.3439 60 44.5038 60C39.6636 60 35.4285 58.4187 33.6134 55.5723C32.694 54.1306 32 52.2259 32 49.9371C32 47.7233 33.4117 44.1006 33.4117 44.1006C33.4117 44.1006 34.2184 47.7233 35.6301 47.7233Z" fill="#FF3F4C"/>
</mask>
<g mask="url(#mask0_19733_42923)">
<path d="M39.5917 49.5355C39.5917 49.5355 41.2055 53.6586 42.2123 53.1582C42.6173 52.9569 42.4156 50.1393 43.2207 47.9255C43.9392 45.9499 46.2458 44.1016 46.2458 44.1016C46.2458 44.1016 47.8607 48.5292 49.2725 50.5418C50.543 52.3531 51.6925 54.3657 51.2877 56.7808C50.7875 59.764 50.6837 60.0009 44.2291 60.0009C37.7744 60.0009 38.8371 60.5779 37.7755 58.1896C36.9704 56.3783 37.2363 53.0747 37.5759 52.1519C37.9902 51.0257 39.5917 49.5355 39.5917 49.5355Z" fill="#FFD322"/>
</g>
<rect x="20" y="88" width="48" height="48" rx="8" fill="#CCCCCC"/>
<path d="M35.6301 115.723C37.5327 115.723 33.9336 109.446 35.4285 106.063C36.134 104.466 38.4536 102.44 38.4536 102.44C38.4536 102.44 37.9697 105.074 39.2603 105.258C40.672 105.459 41.6399 103.357 42.2854 101.434C42.9857 99.3472 42.2854 96 42.2854 96C42.2854 96 45.7786 97.7735 47.5289 100.83C49.949 105.057 48.098 108.628 50.554 107.472C51.2106 107.162 50.7557 106.264 50.7557 106.264C50.7557 106.264 54.5858 109.802 55.7975 112.704C56.8059 115.119 57.4604 117.593 56.6042 120.553C55.0647 125.877 49.3439 128 44.5038 128C39.6636 128 35.4285 126.419 33.6134 123.572C32.694 122.131 32 120.226 32 117.937C32 115.723 33.4117 112.101 33.4117 112.101C33.4117 112.101 34.2184 115.723 35.6301 115.723Z" fill="#FF3F4C"/>
<mask id="mask1_19733_42923" style="mask-type:alpha" maskUnits="userSpaceOnUse" x="32" y="96" width="25" height="32">
<path d="M35.6301 115.723C37.5327 115.723 33.9336 109.446 35.4285 106.063C36.134 104.466 38.4536 102.44 38.4536 102.44C38.4536 102.44 37.9697 105.074 39.2603 105.258C40.672 105.459 41.6399 103.357 42.2854 101.434C42.9857 99.3472 42.2854 96 42.2854 96C42.2854 96 45.7786 97.7735 47.5289 100.83C49.949 105.057 48.098 108.628 50.554 107.472C51.2106 107.162 50.7557 106.264 50.7557 106.264C50.7557 106.264 54.5858 109.802 55.7975 112.704C56.8059 115.119 57.4604 117.593 56.6042 120.553C55.0647 125.877 49.3439 128 44.5038 128C39.6636 128 35.4285 126.419 33.6134 123.572C32.694 122.131 32 120.226 32 117.937C32 115.723 33.4117 112.101 33.4117 112.101C33.4117 112.101 34.2184 115.723 35.6301 115.723Z" fill="#FF3F4C"/>
</mask>
<g mask="url(#mask1_19733_42923)">
<path d="M39.5917 117.536C39.5917 117.536 41.2055 121.659 42.2123 121.158C42.6173 120.957 42.4156 118.139 43.2207 115.925C43.9392 113.95 46.2458 112.102 46.2458 112.102C46.2458 112.102 47.8607 116.529 49.2725 118.542C50.543 120.353 51.6925 122.366 51.2877 124.781C50.7875 127.764 50.6837 128.001 44.2291 128.001C37.7744 128.001 38.8371 128.578 37.7755 126.19C36.9704 124.378 37.2363 121.075 37.5759 120.152C37.9902 119.026 39.5917 117.536 39.5917 117.536Z" fill="#FFD322"/>
</g>
</svg>

