<svg width="54" height="45" viewBox="0 0 54 45" fill="none" xmlns="http://www.w3.org/2000/svg">
<foreignObject x="19.0521" y="4.9774" width="40.7708" height="41.9026"><div xmlns="http://www.w3.org/1999/xhtml" style="backdrop-filter:blur(3.38px);clip-path:url(#bgblur_0_20097_50010_clip_path);height:100%;width:100%"></div></foreignObject><path data-figma-bg-blur-radius="6.75502" d="M50.9786 20.6834C50.4024 19.9712 49.708 19.3776 48.948 18.8964C47.2811 17.8237 45.3238 17.3795 43.372 17.611C43.3134 17.4547 43.2251 17.2933 43.1473 17.1421C43.0709 16.9883 42.9618 16.6617 42.839 16.4457L42.5042 15.9399C42.3428 15.6476 42.1489 15.3866 41.9341 15.1278C41.9237 15.0884 41.9028 15.0389 41.8683 14.9842L41.7973 14.9392C41.2307 14.2331 40.5756 13.6282 39.8305 13.1236L39.698 13.0397C39.3608 12.8262 39.011 12.6376 38.6429 12.4754L38.4984 12.3839C38.1089 12.2046 37.6982 12.0656 37.2766 11.9715C31.9003 10.6777 27.3708 14.8094 26.1729 20.1692C25.636 22.9558 25.6916 25.8271 26.3304 28.5631C27.3188 32.4381 28.6855 36.1725 30.4159 39.7223L30.6127 40.1252L31.0229 40.124C34.8039 40.0464 38.5561 39.5532 42.2336 38.6497C44.8335 37.9643 47.2675 36.652 49.3339 34.8339C53.231 31.1831 54.5567 25.0228 50.9786 20.6834Z" fill="#3779FE" fill-opacity="0.72"/>
<g opacity="0.5" filter="url(#filter1_f_20097_50010)">
<path d="M43.0619 22.6577C42.6955 22.2068 42.2547 21.8303 41.773 21.5242C40.7162 20.8421 39.4781 20.5548 38.2456 20.6934C38.2082 20.5947 38.1518 20.4927 38.1021 20.3971C38.0534 20.2999 37.9834 20.0937 37.905 19.9572L37.6918 19.6372C37.5889 19.4525 37.4655 19.2873 37.3289 19.1234C37.3222 19.0986 37.3088 19.0673 37.2869 19.0327L37.2418 19.0041C36.8816 18.5571 36.4656 18.1735 35.9932 17.8528L35.9092 17.7994C35.6954 17.6636 35.4738 17.5435 35.2407 17.4399L35.1491 17.3817C34.9024 17.2673 34.6424 17.1781 34.3757 17.1173C30.9746 16.2819 28.1265 18.8682 27.3874 22.2406C27.0575 23.9943 27.1022 25.8036 27.5149 27.5298C28.1523 29.9751 29.0282 32.333 30.1333 34.5761L30.259 34.8307L30.5182 34.8315C32.9068 34.7968 35.2758 34.5001 37.5963 33.9447C39.2367 33.5226 40.7702 32.7049 42.0698 31.5672C44.5199 29.2816 45.337 25.4053 43.0619 22.6577Z" fill="#3779FE"/>
</g>
<foreignObject x="17.8158" y="7.60588" width="35.9388" height="36.5793"><div xmlns="http://www.w3.org/1999/xhtml" style="backdrop-filter:blur(6.24px);clip-path:url(#bgblur_1_20097_50010_clip_path);height:100%;width:100%"></div></foreignObject><path data-figma-bg-blur-radius="12.4708" d="M26.7836 0.90332C28.0824 0.666327 29.4154 0.621338 30.7279 0.833984L30.7269 0.834961C38.7882 2.06041 42.9281 10.3738 41.9115 18.4072L41.9105 18.415C41.2649 22.5373 39.7483 26.4705 37.474 29.874L37.472 29.877C34.216 34.5874 30.5048 38.9185 26.3851 42.8184L26.3822 42.8223L26.3812 42.8213L25.9301 43.2354C25.855 43.3041 25.7464 43.323 25.6527 43.2832L25.0717 43.0361C19.9353 40.8474 15.035 38.0874 10.4271 34.79L10.4232 34.7861C7.21443 32.3828 4.53417 29.2375 2.59216 25.5869L2.58826 25.5801C-0.970287 18.3752 0.286975 9.08701 7.54919 5.02051L7.97986 4.78516C8.41491 4.56198 8.86449 4.37414 9.32166 4.22461L9.35583 4.21582L9.57947 4.1748C10.139 3.98279 10.702 3.83862 11.2728 3.73438L11.4955 3.69434L11.5033 3.69238C12.7922 3.49908 14.0735 3.50695 15.348 3.71387L15.4271 3.7002L15.4877 3.69629C15.5077 3.69735 15.5278 3.70036 15.5472 3.70605C15.6281 3.72984 15.6991 3.76371 15.7611 3.79883C16.2185 3.8683 16.666 3.96184 17.1097 4.12109L17.934 4.34277C17.9399 4.34436 17.9457 4.34663 17.9515 4.34863C18.1358 4.41275 18.3372 4.51191 18.5101 4.60059C18.6935 4.69463 18.8378 4.77217 18.9369 4.81348C19.0914 4.87507 19.2742 4.94365 19.4486 5.02441C21.4153 2.84783 23.9762 1.39307 26.7836 0.902344V0.90332Z" fill="#CFDFFF" stroke="url(#paint0_linear_20097_50010)" stroke-width="0.519617" stroke-linecap="round" stroke-linejoin="round"/>
<foreignObject x="20.9621" y="-0.419256" width="22.8876" height="23.735"><div xmlns="http://www.w3.org/1999/xhtml" style="backdrop-filter:blur(3.9px);clip-path:url(#bgblur_2_20097_50010_clip_path);height:100%;width:100%"></div></foreignObject><g filter="url(#filter2_d_20097_50010)" data-figma-bg-blur-radius="7.79426">
<path d="M36.0471 13.6035C36.1336 14.5115 35.5418 15.3414 34.7177 15.516C34.2661 15.5524 33.8074 15.4189 33.4653 15.1083C33.1232 14.7978 32.9066 14.3524 32.865 13.8576L32.8541 13.7915C32.6099 12.3024 31.523 11.1163 30.1447 10.8413C29.2445 10.6788 28.6395 9.7799 28.7754 8.83353C28.9316 7.88347 29.7631 7.24674 30.6403 7.39596C33.4185 7.96386 35.5765 10.3543 36.0055 13.35L36.0471 13.6035Z" fill="url(#paint1_linear_20097_50010)"/>
<path d="M28.8769 8.84554C29.0255 7.95037 29.8052 7.36295 30.617 7.49856L30.618 7.49838C33.3508 8.05701 35.479 10.4103 35.9025 13.3662L35.9445 13.6226C36.0222 14.4753 35.4675 15.2459 34.7064 15.4119C34.2814 15.4449 33.8535 15.3187 33.5356 15.0301C33.2537 14.7743 33.0613 14.4203 32.991 14.0209L32.9685 13.8473L32.9563 13.7731C32.7058 12.2457 31.5897 11.0232 30.1661 10.7392L30.165 10.7384L30.0096 10.7022C29.2536 10.4807 28.7574 9.68578 28.878 8.84633L28.8769 8.84554Z" stroke="url(#paint2_linear_20097_50010)" stroke-width="0.207847"/>
</g>
<defs>
<clipPath id="bgblur_0_20097_50010_clip_path" transform="translate(-19.0521 -4.9774)"><path d="M50.9786 20.6834C50.4024 19.9712 49.708 19.3776 48.948 18.8964C47.2811 17.8237 45.3238 17.3795 43.372 17.611C43.3134 17.4547 43.2251 17.2933 43.1473 17.1421C43.0709 16.9883 42.9618 16.6617 42.839 16.4457L42.5042 15.9399C42.3428 15.6476 42.1489 15.3866 41.9341 15.1278C41.9237 15.0884 41.9028 15.0389 41.8683 14.9842L41.7973 14.9392C41.2307 14.2331 40.5756 13.6282 39.8305 13.1236L39.698 13.0397C39.3608 12.8262 39.011 12.6376 38.6429 12.4754L38.4984 12.3839C38.1089 12.2046 37.6982 12.0656 37.2766 11.9715C31.9003 10.6777 27.3708 14.8094 26.1729 20.1692C25.636 22.9558 25.6916 25.8271 26.3304 28.5631C27.3188 32.4381 28.6855 36.1725 30.4159 39.7223L30.6127 40.1252L31.0229 40.124C34.8039 40.0464 38.5561 39.5532 42.2336 38.6497C44.8335 37.9643 47.2675 36.652 49.3339 34.8339C53.231 31.1831 54.5567 25.0228 50.9786 20.6834Z"/>
</clipPath><filter id="filter1_f_20097_50010" x="17.8158" y="7.60588" width="35.9388" height="36.5793" filterUnits="userSpaceOnUse" color-interpolation-filters="sRGB">
<feFlood flood-opacity="0" result="BackgroundImageFix"/>
<feBlend mode="normal" in="SourceGraphic" in2="BackgroundImageFix" result="shape"/>
<feGaussianBlur stdDeviation="4.67655" result="effect1_foregroundBlur_20097_50010"/>
</filter>
<clipPath id="bgblur_1_20097_50010_clip_path" transform="translate(-17.8158 -7.60588)"><path d="M26.7836 0.90332C28.0824 0.666327 29.4154 0.621338 30.7279 0.833984L30.7269 0.834961C38.7882 2.06041 42.9281 10.3738 41.9115 18.4072L41.9105 18.415C41.2649 22.5373 39.7483 26.4705 37.474 29.874L37.472 29.877C34.216 34.5874 30.5048 38.9185 26.3851 42.8184L26.3822 42.8223L26.3812 42.8213L25.9301 43.2354C25.855 43.3041 25.7464 43.323 25.6527 43.2832L25.0717 43.0361C19.9353 40.8474 15.035 38.0874 10.4271 34.79L10.4232 34.7861C7.21443 32.3828 4.53417 29.2375 2.59216 25.5869L2.58826 25.5801C-0.970287 18.3752 0.286975 9.08701 7.54919 5.02051L7.97986 4.78516C8.41491 4.56198 8.86449 4.37414 9.32166 4.22461L9.35583 4.21582L9.57947 4.1748C10.139 3.98279 10.702 3.83862 11.2728 3.73438L11.4955 3.69434L11.5033 3.69238C12.7922 3.49908 14.0735 3.50695 15.348 3.71387L15.4271 3.7002L15.4877 3.69629C15.5077 3.69735 15.5278 3.70036 15.5472 3.70605C15.6281 3.72984 15.6991 3.76371 15.7611 3.79883C16.2185 3.8683 16.666 3.96184 17.1097 4.12109L17.934 4.34277C17.9399 4.34436 17.9457 4.34663 17.9515 4.34863C18.1358 4.41275 18.3372 4.51191 18.5101 4.60059C18.6935 4.69463 18.8378 4.77217 18.9369 4.81348C19.0914 4.87507 19.2742 4.94365 19.4486 5.02441C21.4153 2.84783 23.9762 1.39307 26.7836 0.902344V0.90332Z"/>
</clipPath><filter id="filter2_d_20097_50010" x="20.9621" y="-0.419256" width="22.8876" height="23.735" filterUnits="userSpaceOnUse" color-interpolation-filters="sRGB">
<feFlood flood-opacity="0" result="BackgroundImageFix"/>
<feColorMatrix in="SourceAlpha" type="matrix" values="0 0 0 0 0 0 0 0 0 0 0 0 0 0 0 0 0 0 127 0" result="hardAlpha"/>
<feOffset dx="2.59809" dy="2.59809"/>
<feGaussianBlur stdDeviation="2.59809"/>
<feColorMatrix type="matrix" values="0 0 0 0 0.215686 0 0 0 0 0.47451 0 0 0 0 0.996078 0 0 0 0.5 0"/>
<feBlend mode="normal" in2="BackgroundImageFix" result="effect1_dropShadow_20097_50010"/>
<feBlend mode="normal" in="SourceGraphic" in2="effect1_dropShadow_20097_50010" result="shape"/>
</filter>
<clipPath id="bgblur_2_20097_50010_clip_path" transform="translate(-20.9621 0.419256)"><path d="M36.0471 13.6035C36.1336 14.5115 35.5418 15.3414 34.7177 15.516C34.2661 15.5524 33.8074 15.4189 33.4653 15.1083C33.1232 14.7978 32.9066 14.3524 32.865 13.8576L32.8541 13.7915C32.6099 12.3024 31.523 11.1163 30.1447 10.8413C29.2445 10.6788 28.6395 9.7799 28.7754 8.83353C28.9316 7.88347 29.7631 7.24674 30.6403 7.39596C33.4185 7.96386 35.5765 10.3543 36.0055 13.35L36.0471 13.6035Z"/>
</clipPath><linearGradient id="paint0_linear_20097_50010" x1="7.43731" y1="5.86022" x2="34.4393" y2="38.3381" gradientUnits="userSpaceOnUse">
<stop stop-color="white" stop-opacity="0.25"/>
<stop offset="1" stop-color="white" stop-opacity="0"/>
</linearGradient>
<linearGradient id="paint1_linear_20097_50010" x1="34.6927" y1="8.18046" x2="27.5787" y2="9.52366" gradientUnits="userSpaceOnUse">
<stop stop-color="white"/>
<stop offset="1" stop-color="white" stop-opacity="0.2"/>
</linearGradient>
<linearGradient id="paint2_linear_20097_50010" x1="29.6838" y1="8.52097" x2="36.1568" y2="12.6594" gradientUnits="userSpaceOnUse">
<stop stop-color="white" stop-opacity="0.25"/>
<stop offset="1" stop-color="white" stop-opacity="0"/>
</linearGradient>
</defs>
</svg>
