<svg width="25" height="32" viewBox="0 0 25 32" fill="none" xmlns="http://www.w3.org/2000/svg">
<path d="M3.63013 19.7233C5.53271 19.7233 1.93357 13.4459 3.42845 10.0629C4.13402 8.46613 6.45356 6.44025 6.45356 6.44025C6.45356 6.44025 5.96967 9.07387 7.26025 9.25786C8.67197 9.45912 9.63985 7.35728 10.2854 5.43396C10.9857 3.3472 10.2854 0 10.2854 0C10.2854 0 13.7786 1.77347 15.5289 4.83019C17.949 9.0566 16.098 12.6284 18.554 11.4717C19.2106 11.1624 18.7557 10.2642 18.7557 10.2642C18.7557 10.2642 22.5858 13.8024 23.7975 16.7044C24.8059 19.1195 25.4604 21.593 24.6042 24.5535C23.0647 29.8765 17.3439 32 12.5038 32C7.6636 32 3.42845 30.4187 1.61339 27.5723C0.694015 26.1306 0 24.2259 0 21.9371C0 19.7233 1.41172 16.1006 1.41172 16.1006C1.41172 16.1006 2.21841 19.7233 3.63013 19.7233Z" fill="#FF3F4C"/>
<mask id="mask0_19733_42841" style="mask-type:alpha" maskUnits="userSpaceOnUse" x="0" y="0" width="25" height="32">
<path d="M3.63013 19.7233C5.53271 19.7233 1.93357 13.4459 3.42845 10.0629C4.13402 8.46613 6.45356 6.44025 6.45356 6.44025C6.45356 6.44025 5.96967 9.07387 7.26025 9.25786C8.67197 9.45912 9.63985 7.35728 10.2854 5.43396C10.9857 3.3472 10.2854 0 10.2854 0C10.2854 0 13.7786 1.77347 15.5289 4.83019C17.949 9.0566 16.098 12.6284 18.554 11.4717C19.2106 11.1624 18.7557 10.2642 18.7557 10.2642C18.7557 10.2642 22.5858 13.8024 23.7975 16.7044C24.8059 19.1195 25.4604 21.593 24.6042 24.5535C23.0647 29.8765 17.3439 32 12.5038 32C7.6636 32 3.42845 30.4187 1.61339 27.5723C0.694015 26.1306 0 24.2259 0 21.9371C0 19.7233 1.41172 16.1006 1.41172 16.1006C1.41172 16.1006 2.21841 19.7233 3.63013 19.7233Z" fill="#FF3F4C"/>
</mask>
<g mask="url(#mask0_19733_42841)">
<path d="M7.59169 21.5355C7.59169 21.5355 9.20555 25.6586 10.2123 25.1582C10.6173 24.9569 10.4156 22.1393 11.2207 19.9255C11.9392 17.9499 14.2458 16.1016 14.2458 16.1016C14.2458 16.1016 15.8607 20.5292 17.2725 22.5418C18.543 24.3531 19.6925 26.3657 19.2877 28.7808C18.7875 31.764 18.6837 32.0009 12.2291 32.0009C5.7744 32.0009 6.83706 32.5779 5.77551 30.1896C4.9704 28.3783 5.23634 25.0747 5.57587 24.1519C5.99024 23.0257 7.59169 21.5355 7.59169 21.5355Z" fill="#FFD322"/>
</g>
</svg>
