<svg width="138" height="28" viewBox="0 0 138 28" fill="none" xmlns="http://www.w3.org/2000/svg">
<circle cx="12.743" cy="13.999" r="2.4809" fill="#00CCFF"/>
<path d="M17.5404 23.7812L17.5404 13.8304C17.5404 11.2223 15.4261 9.10801 12.818 9.10801C10.2099 9.10801 8.09557 11.2223 8.09557 13.8304L8.09557 23.782L-1.2668e-05 27.9995L-1.20044e-05 12.8185C-1.16949e-05 5.7393 5.7388 0.000487412 12.818 0.000487721C19.8972 0.00048803 25.636 5.7393 25.636 12.8185L25.636 27.9977L17.5404 23.7812Z" fill="url(#paint0_linear_19733_42453)"/>
<path d="M134.929 0.852539V2.70433H115.04V16.5557H135.299V18.4075H125.003V25.9258C127.176 26.148 129.361 26.1974 131.558 26.0739C133.756 25.9505 135.867 25.6542 137.892 25.185V27.0368C135.151 27.6788 132.262 27.9998 129.225 27.9998C126.213 27.9998 123.336 27.6788 120.596 27.0368C117.855 26.3949 114.966 26.0739 111.929 26.0739C108.917 26.0739 106.041 26.3949 103.3 27.0368V25.185C105.325 24.7159 107.436 24.432 109.633 24.3332C111.855 24.2098 114.053 24.2592 116.226 24.4814V18.4075H106.263V2.70433H104.411V0.852539H134.929Z" fill="#010937"/>
<path d="M86.0969 27.4065C82.8624 27.4065 80.2082 27.283 78.1342 27.0361C76.0602 26.8139 74.4306 26.4806 73.2454 26.0362C72.0603 25.5917 71.2332 25.0362 70.7641 24.3695C70.3196 23.7029 70.0974 22.9375 70.0974 22.0733C70.0974 21.2092 70.3196 20.4438 70.7641 19.7771C71.2332 19.1105 72.0603 18.5549 73.2454 18.1105C74.4306 17.6661 76.0602 17.3327 78.1342 17.1105C80.2082 16.8636 82.8624 16.7402 86.0969 16.7402C89.3313 16.7402 91.9856 16.8636 94.0596 17.1105C96.1336 17.3327 97.7631 17.6661 98.9483 18.1105C100.133 18.5549 100.948 19.1105 101.393 19.7771C101.862 20.4438 102.096 21.2092 102.096 22.0733C102.096 22.9375 101.862 23.7029 101.393 24.3695C100.948 25.0362 100.133 25.5917 98.9483 26.0362C97.7631 26.4806 96.1336 26.8139 94.0596 27.0361C91.9856 27.283 89.3313 27.4065 86.0969 27.4065ZM84.208 0.481466L90.6523 15.1847H81.6526L76.6157 3.74061L71.6159 15.1847H69.3567L74.9861 2.33325H73.5788V0.481466H84.208ZM92.9485 6.14794V0H101.726V15.555H92.9485V7.99973H88.7264V6.14794H92.9485ZM86.0969 25.5547C88.7634 25.5547 90.6399 25.2337 91.7263 24.5918C92.8374 23.9498 93.3929 23.1103 93.3929 22.0733C93.3929 21.0363 92.8374 20.1968 91.7263 19.5549C90.6399 18.9129 88.7634 18.592 86.0969 18.592C83.4303 18.592 81.5415 18.9129 80.4304 19.5549C79.344 20.1968 78.8008 21.0363 78.8008 22.0733C78.8008 23.1103 79.344 23.9498 80.4304 24.5918C81.5415 25.2337 83.4303 25.5547 86.0969 25.5547Z" fill="#010937"/>
<path d="M56.5241 16.555H33.636V14.7032H40.7839V11.9626C38.5864 11.5922 36.9939 10.9256 36.0062 9.96263C35.0433 8.9997 34.5619 7.75282 34.5619 6.22201C34.5619 4.27146 35.389 2.77768 37.0432 1.74068C38.6975 0.67899 41.4135 0.148143 45.1911 0.148143C48.9688 0.148143 51.6847 0.67899 53.339 1.74068C54.9933 2.77768 55.8204 4.27146 55.8204 6.22201C55.8204 7.75282 55.3266 9.01204 54.339 9.99966C53.376 10.9626 51.7835 11.6292 49.5613 11.9996V14.7032H56.5241V16.555ZM57.4129 0H66.1904V9.1108H69.6718V10.9626H66.1904V20.74H57.4129V0ZM66.5608 27.0361C61.4745 28.2706 56.3883 28.2706 51.302 27.0361C46.2158 25.8016 41.1295 25.8016 36.0433 27.0361V18.2216H44.8208V24.2955C46.9935 24.3695 49.1539 24.6658 51.302 25.1843C56.3883 26.4189 61.4745 26.4189 66.5608 25.1843V27.0361ZM45.1911 10.4441C45.8331 10.4441 46.3145 10.1108 46.6355 9.44413C46.9565 8.77748 47.117 7.70344 47.117 6.22201C47.117 4.74058 46.9565 3.66654 46.6355 2.9999C46.3145 2.33326 45.8331 1.99993 45.1911 1.99993C44.5492 1.99993 44.0677 2.33326 43.7467 2.9999C43.4257 3.66654 43.2653 4.74058 43.2653 6.22201C43.2653 7.70344 43.4257 8.77748 43.7467 9.44413C44.0677 10.1108 44.5492 10.4441 45.1911 10.4441Z" fill="#010937"/>
<defs>
<linearGradient id="paint0_linear_19733_42453" x1="12.818" y1="0.000487721" x2="12.818" y2="27.9995" gradientUnits="userSpaceOnUse">
<stop stop-color="#1E58F8"/>
<stop offset="1" stop-color="#00CCFF"/>
</linearGradient>
</defs>
</svg>
