<svg width="182" height="80" viewBox="0 0 182 80" fill="none" xmlns="http://www.w3.org/2000/svg">
<path fill-rule="evenodd" clip-rule="evenodd" d="M159.811 56.2285C159.996 56.7281 159.627 57.2548 159.093 57.2549H154.834L151.882 59.8105C151.475 60.1627 150.836 59.9973 150.649 59.4912L147.021 49.6572L143.393 59.4912C143.206 59.9972 142.569 60.1626 142.162 59.8105L139.209 57.2549H134.951C134.417 57.2549 134.048 56.7282 134.232 56.2285L138.664 44.2148L147.021 47.2158L155.379 44.2148L159.811 56.2285Z" fill="#0086FF"/>
<mask id="mask0_19733_42849" style="mask-type:alpha" maskUnits="userSpaceOnUse" x="134" y="44" width="26" height="17">
<path fill-rule="evenodd" clip-rule="evenodd" d="M159.815 56.2324C159.999 56.732 159.631 57.2587 159.097 57.2588H154.838L151.886 59.8145C151.479 60.1666 150.84 60.0012 150.653 59.4951L147.025 49.6611L143.397 59.4951C143.21 60.0011 142.573 60.1665 142.166 59.8145L139.213 57.2588H134.955C134.421 57.2588 134.052 56.7321 134.236 56.2324L138.668 44.2188L147.025 47.2197L155.383 44.2188L159.815 56.2324Z" fill="#FF2C4D"/>
</mask>
<g mask="url(#mask0_19733_42849)">
<ellipse cx="147.004" cy="37.1035" rx="15" ry="14.7988" fill="#0074FF"/>
</g>
<ellipse cx="147" cy="34.7988" rx="15" ry="14.7988" fill="#FF7E00"/>
<mask id="mask1_19733_42849" style="mask-type:alpha" maskUnits="userSpaceOnUse" x="132" y="20" width="30" height="30">
<ellipse cx="147" cy="34.7988" rx="15" ry="14.7988" fill="#FF7E00"/>
</mask>
<g mask="url(#mask1_19733_42849)">
<ellipse cx="147" cy="33.6464" rx="15" ry="14.7988" fill="#FF9100"/>
</g>
<circle cx="147.19" cy="34.7989" r="11.8028" fill="#C96218"/>
<mask id="mask2_19733_42849" style="mask-type:alpha" maskUnits="userSpaceOnUse" x="135" y="22" width="24" height="25">
<circle cx="147.19" cy="34.7989" r="11.8028" fill="#FFA703"/>
</mask>
<g mask="url(#mask2_19733_42849)">
<circle cx="147.19" cy="33.252" r="11.8028" fill="#DC6F13"/>
</g>
<path d="M146.538 27.3047C148.45 27.3047 149.904 27.6983 150.902 28.4854C151.899 29.2562 152.398 30.2976 152.398 31.6095C152.398 32.3967 152.182 33.0691 151.749 33.6267C151.334 34.1678 150.835 34.5778 150.253 34.8566C150.602 34.9878 150.927 35.1518 151.226 35.3486C151.525 35.5454 151.791 35.7914 152.024 36.0866C152.256 36.3818 152.439 36.7262 152.572 37.1197C152.705 37.5133 152.772 37.9725 152.772 38.4973C152.772 39.2025 152.614 39.8339 152.298 40.3914C151.999 40.949 151.575 41.4246 151.026 41.8182C150.478 42.2118 149.821 42.507 149.056 42.7038C148.308 42.9169 147.486 43.0235 146.588 43.0235C144.859 43.0235 143.554 42.7857 142.673 42.3102C141.792 41.8346 141.352 41.2278 141.352 40.4898C141.352 40.047 141.46 39.6699 141.676 39.3583C141.892 39.0303 142.158 38.7761 142.474 38.5957C142.806 38.8253 143.247 39.0713 143.795 39.3337C144.36 39.5797 145.092 39.7027 145.989 39.7027C146.837 39.7027 147.461 39.5551 147.86 39.2599C148.275 38.9647 148.483 38.5793 148.483 38.1037C148.483 37.6281 148.317 37.2673 147.984 37.0213C147.668 36.7754 147.112 36.6524 146.314 36.6524H143.97C143.853 36.472 143.754 36.2506 143.671 35.9882C143.587 35.7258 143.546 35.4142 143.546 35.0534C143.546 34.6762 143.579 34.3564 143.646 34.0941C143.729 33.8153 143.837 33.5857 143.97 33.4053H146.314C147.511 33.4053 148.109 32.9543 148.109 32.0523C148.109 31.6259 147.918 31.2815 147.535 31.0192C147.153 30.7568 146.58 30.6256 145.815 30.6256C145.133 30.6256 144.535 30.7076 144.02 30.8716C143.504 31.0192 143.08 31.2078 142.748 31.4373C142.465 31.2406 142.233 31.0028 142.05 30.724C141.867 30.4288 141.775 30.0844 141.775 29.6908C141.775 28.8708 142.208 28.2723 143.072 27.8951C143.936 27.5015 145.092 27.3047 146.538 27.3047Z" fill="#F99447"/>
<mask id="mask3_19733_42849" style="mask-type:alpha" maskUnits="userSpaceOnUse" x="141" y="27" width="12" height="17">
<path d="M146.538 27.3047C148.45 27.3047 149.904 27.6983 150.902 28.4854C151.899 29.2562 152.398 30.2976 152.398 31.6095C152.398 32.3967 152.182 33.0691 151.749 33.6267C151.334 34.1678 150.835 34.5778 150.253 34.8566C150.602 34.9878 150.927 35.1518 151.226 35.3486C151.525 35.5454 151.791 35.7914 152.024 36.0866C152.256 36.3818 152.439 36.7262 152.572 37.1197C152.705 37.5133 152.772 37.9725 152.772 38.4973C152.772 39.2025 152.614 39.8339 152.298 40.3914C151.999 40.949 151.575 41.4246 151.026 41.8182C150.478 42.2118 149.821 42.507 149.056 42.7038C148.308 42.9169 147.486 43.0235 146.588 43.0235C144.859 43.0235 143.554 42.7857 142.673 42.3102C141.792 41.8346 141.352 41.2278 141.352 40.4898C141.352 40.047 141.46 39.6699 141.676 39.3583C141.892 39.0303 142.158 38.7761 142.474 38.5957C142.806 38.8253 143.247 39.0713 143.795 39.3337C144.36 39.5797 145.092 39.7027 145.989 39.7027C146.837 39.7027 147.461 39.5551 147.86 39.2599C148.275 38.9647 148.483 38.5793 148.483 38.1037C148.483 37.6281 148.317 37.2673 147.984 37.0213C147.668 36.7754 147.112 36.6524 146.314 36.6524H143.97C143.853 36.472 143.754 36.2506 143.671 35.9882C143.587 35.7258 143.546 35.4142 143.546 35.0534C143.546 34.6762 143.579 34.3564 143.646 34.0941C143.729 33.8153 143.837 33.5857 143.97 33.4053H146.314C147.511 33.4053 148.109 32.9543 148.109 32.0523C148.109 31.6259 147.918 31.2815 147.535 31.0192C147.153 30.7568 146.58 30.6256 145.815 30.6256C145.133 30.6256 144.535 30.7076 144.02 30.8716C143.504 31.0192 143.08 31.2078 142.748 31.4373C142.465 31.2406 142.233 31.0028 142.05 30.724C141.867 30.4288 141.775 30.0844 141.775 29.6908C141.775 28.8708 142.208 28.2723 143.072 27.8951C143.936 27.5015 145.092 27.3047 146.538 27.3047Z" fill="#F99447"/>
</mask>
<g mask="url(#mask3_19733_42849)">
<path d="M146.538 26.1523C148.45 26.1523 149.904 26.5459 150.902 27.3331C151.899 28.1039 153.37 29.0595 153.37 30.4572C153.37 31.2958 153.292 32.0121 153.135 32.6061C152.984 33.1827 152.802 33.6194 152.591 33.9164C152.718 34.0562 151.182 34.0271 151.481 34.2239C151.781 34.4207 151.791 34.639 152.024 34.9342C152.256 35.2294 152.439 35.5738 152.572 35.9674C152.705 36.361 152.772 36.8202 152.772 37.345C152.772 38.0501 152.614 38.6815 152.298 39.2391C151.999 39.7967 151.575 40.2723 151.026 40.6658C150.478 41.0594 149.821 41.3546 149.056 41.5514C148.308 41.7646 147.486 41.8712 146.588 41.8712C144.859 41.8712 143.554 41.6334 142.673 41.1578C141.792 40.6822 141.352 40.0755 141.352 39.3375C141.352 38.8947 141.46 38.5175 141.676 38.2059C141.892 37.8779 142.158 37.6237 142.474 37.4434C142.806 37.6729 143.247 37.9189 143.795 38.1813C144.36 38.4273 145.092 38.5503 145.989 38.5503C146.837 38.5503 147.461 38.4027 147.86 38.1075C148.275 37.8123 148.483 37.427 148.483 36.9514C148.483 36.4758 148.317 36.115 147.984 35.869C147.668 35.623 147.112 35.5 146.314 35.5H143.97C143.853 35.3196 143.754 35.0982 143.671 34.8358C143.587 34.5735 143.546 34.2619 143.546 33.9011C143.546 33.5239 143.579 33.2041 143.646 32.9417C143.729 32.6629 143.837 32.4333 143.97 32.2529H146.314C147.511 32.2529 148.109 31.8019 148.109 30.9C148.109 30.4736 147.918 30.1292 147.535 29.8668C147.153 29.6044 146.58 29.4732 145.815 29.4732C145.133 29.4732 144.535 29.5552 144.02 29.7192C143.504 29.8668 143.08 30.0554 142.748 30.285C142.465 30.0882 142.233 29.8504 142.05 29.5716C141.867 29.2764 141.775 28.932 141.775 28.5385C141.775 27.7185 142.208 27.1199 143.072 26.7427C143.936 26.3491 145.092 26.1523 146.538 26.1523Z" fill="#FFA549"/>
</g>
<path fill-rule="evenodd" clip-rule="evenodd" d="M103.811 56.2285C103.996 56.7281 103.627 57.2548 103.093 57.2549H98.8339L95.8818 59.8105C95.4749 60.1627 94.8363 59.9973 94.6493 59.4912L91.0214 49.6572L87.3935 59.4912C87.2064 59.9972 86.5688 60.1626 86.162 59.8105L83.2089 57.2549H78.9511C78.417 57.2549 78.048 56.7282 78.2323 56.2285L82.664 44.2148L91.0214 47.2158L99.3788 44.2148L103.811 56.2285Z" fill="#84DD70"/>
<mask id="mask4_19733_42849" style="mask-type:alpha" maskUnits="userSpaceOnUse" x="78" y="44" width="26" height="17">
<path fill-rule="evenodd" clip-rule="evenodd" d="M103.815 56.2324C103.999 56.732 103.631 57.2587 103.097 57.2588H98.8378L95.8857 59.8145C95.4788 60.1666 94.8402 60.0012 94.6532 59.4951L91.0253 49.6611L87.3974 59.4951C87.2103 60.0011 86.5727 60.1665 86.1659 59.8145L83.2128 57.2588H78.955C78.4209 57.2588 78.052 56.7321 78.2362 56.2324L82.6679 44.2188L91.0253 47.2197L99.3827 44.2188L103.815 56.2324Z" fill="#FF2C4D"/>
</mask>
<g mask="url(#mask4_19733_42849)">
<ellipse cx="91.0039" cy="37.1035" rx="15" ry="14.7988" fill="#64D64F"/>
</g>
<ellipse cx="91" cy="34.7988" rx="15" ry="14.7988" fill="#CECECE"/>
<mask id="mask5_19733_42849" style="mask-type:alpha" maskUnits="userSpaceOnUse" x="76" y="20" width="30" height="30">
<ellipse cx="91" cy="34.7988" rx="15" ry="14.7988" fill="#CECECE"/>
</mask>
<g mask="url(#mask5_19733_42849)">
<ellipse cx="91" cy="33.6464" rx="15" ry="14.7988" fill="#E0E0E0"/>
</g>
<circle cx="91.1895" cy="34.7989" r="11.8028" fill="#898989"/>
<mask id="mask6_19733_42849" style="mask-type:alpha" maskUnits="userSpaceOnUse" x="79" y="22" width="24" height="25">
<circle cx="91.1895" cy="34.7989" r="11.8028" fill="#898989"/>
</mask>
<g mask="url(#mask6_19733_42849)">
<circle cx="91.1895" cy="33.252" r="11.8028" fill="#9E9E9E"/>
</g>
<path d="M90.8749 27.3047C91.8224 27.3047 92.6619 27.4277 93.3933 27.6737C94.1248 27.9033 94.7482 28.2231 95.2635 28.633C95.7788 29.043 96.1694 29.5268 96.4354 30.0844C96.7014 30.642 96.8344 31.2406 96.8344 31.8801C96.8344 33.6021 95.8453 35.242 93.8671 36.8L90.6006 39.3829H96.585C96.6848 39.5633 96.7762 39.7929 96.8593 40.0716C96.9591 40.3504 97.0089 40.6538 97.0089 40.9818C97.0089 41.5722 96.8759 41.9986 96.61 42.261C96.344 42.507 95.9949 42.63 95.5627 42.63H86.9102C86.5445 42.384 86.2536 42.0724 86.0375 41.6952C85.838 41.3016 85.7383 40.8424 85.7383 40.3176C85.7383 39.7601 85.8546 39.2927 86.0874 38.9155C86.3201 38.5219 86.5778 38.2103 86.8604 37.9807L90.3014 35.078C90.7336 34.7172 91.091 34.3974 91.3736 34.1187C91.6562 33.8235 91.8806 33.5611 92.0469 33.3315C92.2297 33.1019 92.3544 32.8887 92.4209 32.6919C92.504 32.4951 92.5456 32.3065 92.5456 32.1261C92.5456 31.6669 92.3378 31.3061 91.9222 31.0438C91.5232 30.7814 91.0245 30.6502 90.4261 30.6502C89.7611 30.6502 89.1627 30.7568 88.6307 30.97C88.1154 31.1668 87.6832 31.3799 87.3341 31.6095C87.0515 31.4127 86.8188 31.1668 86.6359 30.8716C86.4531 30.5764 86.3617 30.232 86.3617 29.8384C86.3617 28.9856 86.7689 28.3543 87.5835 27.9443C88.398 27.5179 89.4952 27.3047 90.8749 27.3047Z" fill="#CECECE"/>
<mask id="mask7_19733_42849" style="mask-type:alpha" maskUnits="userSpaceOnUse" x="85" y="27" width="13" height="16">
<path d="M90.8749 27.3047C91.8224 27.3047 92.6619 27.4277 93.3933 27.6737C94.1248 27.9033 94.7482 28.2231 95.2635 28.633C95.7788 29.043 96.1694 29.5268 96.4354 30.0844C96.7014 30.642 96.8344 31.2406 96.8344 31.8801C96.8344 33.6021 95.8453 35.242 93.8671 36.8L90.6006 39.3829H96.585C96.6848 39.5633 96.7762 39.7929 96.8593 40.0716C96.9591 40.3504 97.0089 40.6538 97.0089 40.9818C97.0089 41.5722 96.8759 41.9986 96.61 42.261C96.344 42.507 95.9949 42.63 95.5627 42.63H86.9102C86.5445 42.384 86.2536 42.0724 86.0375 41.6952C85.838 41.3016 85.7383 40.8424 85.7383 40.3176C85.7383 39.7601 85.8546 39.2927 86.0874 38.9155C86.3201 38.5219 86.5778 38.2103 86.8604 37.9807L90.3014 35.078C90.7336 34.7172 91.091 34.3974 91.3736 34.1187C91.6562 33.8235 91.8806 33.5611 92.0469 33.3315C92.2297 33.1019 92.3544 32.8887 92.4209 32.6919C92.504 32.4951 92.5456 32.3065 92.5456 32.1261C92.5456 31.6669 92.3378 31.3061 91.9222 31.0438C91.5232 30.7814 91.0245 30.6502 90.4261 30.6502C89.7611 30.6502 89.1627 30.7568 88.6307 30.97C88.1154 31.1668 87.6832 31.3799 87.3341 31.6095C87.0515 31.4127 86.8188 31.1668 86.6359 30.8716C86.4531 30.5764 86.3617 30.232 86.3617 29.8384C86.3617 28.9856 86.7689 28.3543 87.5835 27.9443C88.398 27.5179 89.4952 27.3047 90.8749 27.3047Z" fill="#CECECE"/>
</mask>
<g mask="url(#mask7_19733_42849)">
<path d="M90.8749 26.5352C91.8224 26.5352 92.6619 26.6582 93.3933 26.9041C94.1248 27.1337 94.7482 27.4535 95.2635 27.8635C95.7788 28.2735 96.1694 28.7573 96.4354 29.3149C96.7014 29.8724 96.8344 30.471 96.8344 31.1106C96.8344 32.8325 97.5409 35.1628 95.5627 36.7207L92.4209 38.6133H96.585C96.6848 38.7937 96.7762 39.0233 96.8593 39.3021C96.9591 39.5809 97.0089 39.8843 97.0089 40.2123C97.0089 40.8027 96.8759 41.229 96.61 41.4914C96.344 41.7374 95.9949 41.8604 95.5627 41.8604H86.9102C86.5445 41.6144 86.2536 41.3028 86.0375 40.9257C85.838 40.5321 85.7383 40.0729 85.7383 39.5481C85.7383 38.9905 85.8546 38.5231 86.0874 38.146C86.3201 37.7524 86.5778 37.4408 86.8604 37.2112L90.3014 34.3085C90.7336 33.9477 91.091 33.6279 91.3736 33.3491C91.6562 33.0539 91.8806 32.7915 92.0469 32.5619C92.2297 32.3324 92.3544 32.1192 92.4209 31.9224C92.504 31.7256 92.0469 31.8241 92.0469 31.6437C92.0469 31.1845 91.7892 31.7912 91.3736 31.5288C90.9746 31.2664 90.4759 31.1352 89.8775 31.1352C89.2126 31.1352 88.6141 31.2418 88.0822 31.455C87.5669 31.6518 87.1346 31.865 86.7856 32.0946C86.503 31.8978 86.2702 31.6518 86.0874 31.3566C85.9045 31.0614 85.8131 30.717 85.8131 30.3234C85.8131 29.4707 86.7689 27.5847 87.5835 27.1747C88.398 26.7483 89.4952 26.5352 90.8749 26.5352Z" fill="#E0E0E0"/>
</g>
<path fill-rule="evenodd" clip-rule="evenodd" d="M47.8104 56.2314C47.9947 56.731 47.6265 57.2577 47.0927 57.2578H42.8339L39.8817 59.8135C39.4749 60.1656 38.8361 59.9995 38.6493 59.4932L35.0233 49.6641L31.3973 59.4932C31.2106 59.9994 30.5728 60.1653 30.1659 59.8135L27.2128 57.2578H22.955C22.421 57.2578 22.052 56.731 22.2362 56.2314L26.6678 44.2188L35.0233 47.2188L43.3788 44.2188L47.8104 56.2314Z" fill="#FF2C4D"/>
<mask id="mask8_19733_42849" style="mask-type:alpha" maskUnits="userSpaceOnUse" x="22" y="44" width="26" height="16">
<path fill-rule="evenodd" clip-rule="evenodd" d="M47.8143 56.2275C47.9986 56.7271 47.6304 57.2538 47.0966 57.2539H42.8378L39.8856 59.8096C39.4788 60.1617 38.84 59.9956 38.6532 59.4893L35.0272 49.6602L31.4012 59.4893C31.2145 59.9955 30.5767 60.1614 30.1698 59.8096L27.2167 57.2539H22.9589C22.4249 57.2539 22.0559 56.7271 22.2401 56.2275L26.6718 44.2148L35.0272 47.2148L43.3827 44.2148L47.8143 56.2275Z" fill="#FF2C4D"/>
</mask>
<g mask="url(#mask8_19733_42849)">
<ellipse cx="35.0073" cy="37.0985" rx="14.9994" ry="14.7977" fill="#FF002E"/>
</g>
<ellipse cx="34.9994" cy="34.7977" rx="14.9994" ry="14.7977" fill="#FFCD38"/>
<mask id="mask9_19733_42849" style="mask-type:alpha" maskUnits="userSpaceOnUse" x="20" y="20" width="30" height="30">
<ellipse cx="34.9994" cy="34.7977" rx="14.9994" ry="14.7977" fill="#FFCD38"/>
</mask>
<g mask="url(#mask9_19733_42849)">
<ellipse cx="34.9994" cy="33.6454" rx="14.9994" ry="14.7977" fill="#FFE167"/>
</g>
<circle cx="35.1966" cy="34.8021" r="11.8021" fill="#FFA703"/>
<mask id="mask10_19733_42849" style="mask-type:alpha" maskUnits="userSpaceOnUse" x="23" y="23" width="24" height="24">
<circle cx="35.1966" cy="34.8021" r="11.8021" fill="#FFA703"/>
</mask>
<g mask="url(#mask10_19733_42849)">
<circle cx="35.1966" cy="33.2513" r="11.8021" fill="#FFB63E"/>
</g>
<path d="M33.9397 31.4619L31.4463 32.2245C31.1969 32.0605 30.9476 31.8309 30.6982 31.5357C30.4489 31.2405 30.3242 30.8305 30.3242 30.3057C30.3242 29.3218 30.9309 28.633 32.1444 28.2394L34.937 27.3047H35.8596C36.5744 27.3047 37.1396 27.5097 37.5551 27.9197C37.9707 28.3296 38.1785 28.8872 38.1785 29.5924V42.4084C37.9956 42.4412 37.7213 42.4822 37.3556 42.5314C37.0066 42.597 36.6492 42.6298 36.2835 42.6298C35.9178 42.6298 35.5853 42.6052 35.2861 42.556C35.0035 42.5068 34.7625 42.4084 34.563 42.2608C34.3636 42.1132 34.2056 41.9164 34.0893 41.6704C33.9895 41.408 33.9397 41.0718 33.9397 40.6619V31.4619Z" fill="#FFCD38"/>
<mask id="mask11_19733_42849" style="mask-type:alpha" maskUnits="userSpaceOnUse" x="30" y="27" width="9" height="16">
<path d="M33.9397 31.4619L31.4463 32.2245C31.1969 32.0605 30.9476 31.8309 30.6982 31.5357C30.4489 31.2405 30.3242 30.8305 30.3242 30.3057C30.3242 29.3218 30.9309 28.633 32.1444 28.2394L34.937 27.3047H35.8596C36.5744 27.3047 37.1396 27.5097 37.5551 27.9197C37.9707 28.3296 38.1785 28.8872 38.1785 29.5924V42.4084C37.9956 42.4412 37.7213 42.4822 37.3556 42.5314C37.0066 42.597 36.6492 42.6298 36.2835 42.6298C35.9178 42.6298 35.5853 42.6052 35.2861 42.556C35.0035 42.5068 34.7625 42.4084 34.563 42.2608C34.3636 42.1132 34.2056 41.9164 34.0893 41.6704C33.9895 41.408 33.9397 41.0718 33.9397 40.6619V31.4619Z" fill="#FFCD38"/>
</mask>
<g mask="url(#mask11_19733_42849)">
<path d="M33.9397 30.3095L31.4463 31.0721C31.1969 30.9081 30.9476 30.6785 30.6982 30.3833C30.4489 30.0882 30.3242 29.6782 30.3242 29.1534C30.3242 28.1694 30.9309 27.4807 32.1444 27.0871L34.937 26.1523H35.8596C36.5744 26.1523 37.1396 26.3573 37.5551 26.7673C37.9707 27.1773 38.1785 27.7349 38.1785 28.44V41.256C37.9956 41.2888 37.7213 41.3298 37.3556 41.379C37.0066 41.4446 36.6492 41.4774 36.2835 41.4774C35.9178 41.4774 35.5853 41.4528 35.2861 41.4036C35.0035 41.3544 34.7625 41.256 34.563 41.1084C34.3636 40.9608 34.2056 40.7641 34.0893 40.5181C33.9895 40.2557 33.9397 39.9195 33.9397 39.5095V30.3095Z" fill="#FFE167"/>
</g>
</svg>

